<?xml version="1.0" encoding="UTF-8"?>
<svg enable-background="new 0 0 100 100" version="1.1" viewBox="0 0 100 100" xml:space="preserve" 
	xmlns="http://www.w3.org/2000/svg">
	<path d="m52.5 67.8c-6.9 0-13.2-4-16.1-10.3-2-4.3-2.2-9.1-0.6-13.6s4.9-8 9.2-10c1.8-0.9 3.8-1.4 5.8-1.6 0.4 0 0.9 0.2 1 0.6 0.2 0.4 0.1 0.9-0.2 1.2-4.7 4.7-6 11.8-3.2 17.8 2.6 5.5 8.2 9.1 14.2 9.1 0.5 0 1 0 1.5-0.1 0.4 0 0.9 0.2 1 0.6 0.2 0.4 0.1 0.9-0.2 1.2-1.4 1.4-3.1 2.6-4.9 3.4-2.4 1.1-4.9 1.7-7.5 1.7zm-4.3-32.9c-0.8 0.2-1.6 0.5-2.3 0.9-3.8 1.8-6.7 4.9-8.1 8.9-1.4 3.9-1.2 8.2 0.5 12 2.6 5.5 8.2 9.1 14.2 9.1 2.3 0 4.5-0.5 6.6-1.5 0.8-0.3 1.5-0.8 2.1-1.2-6.4-0.5-12.1-4.4-14.8-10.2-2.6-6-1.9-12.9 1.8-18z"/>
</svg>
