<?xml version="1.0" encoding="UTF-8"?>
<svg enable-background="new 0 0 100 100" version="1.1" viewBox="0 0 100 100" xml:space="preserve" xmlns="http://www.w3.org/2000/svg">
		<path d="m50 62.9c-1.8 0-3.6-0.4-5.3-1.2-6.5-2.9-9.4-10.6-6.4-17.1 2.1-4.6 6.7-7.6 11.8-7.6 1.8 0 3.6 0.4 5.3 1.2 6.5 2.9 9.4 10.6 6.4 17.1-2.1 4.6-6.7 7.6-11.8 7.6zm0-23.7c-4.2 0-8.1 2.5-9.9 6.4-2.5 5.4 0 11.9 5.4 14.3 1.4 0.6 2.9 1 4.5 1 4.2 0 8.1-2.5 9.9-6.4 2.5-5.4 0-11.9-5.4-14.3-1.5-0.7-3-1-4.5-1z"/>
		<path d="m72.3 61.1c-0.1 0-0.3 0-0.4-0.1l-5.9-2.7c-0.5-0.2-0.8-0.9-0.5-1.4 0.2-0.5 0.9-0.8 1.4-0.5l5.9 2.7c0.5 0.2 0.8 0.9 0.5 1.4-0.3 0.4-0.6 0.6-1 0.6z"/>
		<path d="m33.6 43.6c-0.1 0-0.3 0-0.4-0.1l-5.9-2.7c-0.5-0.2-0.8-0.9-0.5-1.4 0.2-0.5 0.9-0.8 1.4-0.5l5.9 2.7c0.5 0.2 0.8 0.9 0.5 1.4-0.2 0.4-0.6 0.6-1 0.6z"/>
		<path d="m57.4 34.7c-0.1 0-0.3 0-0.4-0.1-0.5-0.2-0.8-0.9-0.5-1.4l2.7-5.9c0.2-0.5 0.9-0.8 1.4-0.5 0.5 0.2 0.8 0.9 0.5 1.4l-2.7 5.9c-0.2 0.3-0.6 0.6-1 0.6z"/>
		<path d="m39.9 73.3c-0.1 0-0.3 0-0.4-0.1-0.5-0.2-0.8-0.9-0.5-1.4l2.7-5.9c0.2-0.5 0.9-0.8 1.4-0.5 0.5 0.2 0.8 0.9 0.5 1.4l-2.7 5.9c-0.2 0.4-0.6 0.6-1 0.6z"/>
		<path d="m66.8 44.7c-0.4 0-0.8-0.3-1-0.7-0.2-0.5 0.1-1.1 0.6-1.3l6-2.3c0.5-0.2 1.1 0.1 1.3 0.6s-0.1 1.1-0.6 1.3l-6 2.3c0 0.1-0.2 0.1-0.3 0.1z"/>
		<path d="m27.1 59.7c-0.4 0-0.8-0.3-1-0.7-0.2-0.5 0.1-1.1 0.6-1.3l6-2.3c0.5-0.2 1.1 0.1 1.3 0.6s-0.1 1.1-0.6 1.3l-6 2.3s-0.1 0.1-0.3 0.1z"/>
		<path d="m43.7 34.2c-0.4 0-0.8-0.3-1-0.7l-2.3-6c-0.2-0.5 0.1-1.1 0.6-1.3s1.1 0.1 1.3 0.6l2.3 6c0.2 0.5-0.1 1.1-0.6 1.3-0.1 0.1-0.2 0.1-0.3 0.1z"/>
		<path d="m58.6 73.9c-0.4 0-0.8-0.3-1-0.7l-2.3-6c-0.2-0.5 0.1-1.1 0.6-1.3s1.1 0.1 1.3 0.6l2.3 6c0.2 0.5-0.1 1.1-0.6 1.3 0 0.1-0.2 0.1-0.3 0.1z"/>
</svg>
